<svg xmlns="http://www.w3.org/2000/svg" xmlns:xlink="http://www.w3.org/1999/xlink" version="1.1" width="191.0665pt" height="269.2913pt" viewBox="0 0 191.0665 269.2913">
<path transform="matrix(1,0,0,-1,0,269.2913)" d="M.0003 269.2916H191.0659V77.94C187.8642 46.8556 142.7769 1.3657 96.3295 .0017 49.8818 1.3657 3.2017 47.6087 .0003 78.6932Z" fill="#231f20" fill-rule="evenodd"/>
<path transform="matrix(1,0,0,-1,0,269.2913)" stroke-width=".216" stroke-linecap="butt" stroke-miterlimit="22.925585" stroke-linejoin="miter" fill="none" stroke="#000000" d="M.0003 269.2916H191.0659V77.94C187.8642 46.8556 142.7769 1.3657 96.3295 .0017 49.8818 1.3657 3.2017 47.6087 .0003 78.6932Z"/>
<path transform="matrix(1,0,0,-1,0,269.2913)" d="M191.0659 77.9386C187.8642 46.8544 142.7769 1.3643 96.3295 .0003 49.8818 1.3643 3.2017 47.6073 .0003 78.6917V269.2905H191.0659Z" fill="#231f20" fill-rule="evenodd"/>
<path transform="matrix(1,0,0,-1,0,269.2913)" d="M138.5235 191.626C138.9886 191.9631 139.7441 191.738 140.2112 191.124 140.6781 190.5103 140.6801 189.7387 140.2143 189.4017 139.75 189.0652 138.9943 189.2897 138.5271 189.9037 138.0603 190.518 138.0583 191.289 138.5235 191.626" fill="#ffffff" fill-rule="evenodd"/>
<path transform="matrix(1,0,0,-1,0,269.2913)" d="M172.4769 119.0018 150.8601 180.51C150.7323 180.8762 146.8131 181.319 145.423 181.4732 145.1024 181.5089 142.1901 176.1225 142.1603 176.2081L171.9181 118.9083C172.2849 118.2016 172.5959 118.7685 172.4769 119.0018" fill="#ed1c24" fill-rule="evenodd"/>
<path transform="matrix(1,0,0,-1,0,269.2913)" d="M35.4572 87.5837V69.8051H29.268L37.0018 63.6409V83.4454H42.8275Z" fill="#ed1c24" fill-rule="evenodd"/>
<path transform="matrix(1,0,0,-1,0,269.2913)" d="M25.1714 88.3451H34.1002L22.2477 94.9992V75.4004L25.1714 73.0704Z" fill="#ed1c24" fill-rule="evenodd"/>
<path transform="matrix(1,0,0,-1,0,269.2913)" d="M15.8845 103.8132 34.06 122.5417 57.7899 109.7277 57.8659 78.4619Z" fill="#ed1c24" fill-rule="evenodd"/>
<path transform="matrix(1,0,0,-1,0,269.2913)" d="M55.6461 125.53 94.3824 203.3708 94.4218 125.6148Z" fill="#ed1c24" fill-rule="evenodd"/>
<path transform="matrix(1,0,0,-1,0,269.2913)" d="M60.7303 123.0508 94.3829 122.8992 94.3773 17.3857 63.3433 17.3296 60.7501 29.8086Z" fill="#ed1c24" fill-rule="evenodd"/>
<path transform="matrix(1,0,0,-1,0,269.2913)" d="M47.6467 80.7401V61.7556H39.3673L57.8245 47.0449 57.8854 76.8002 52.5362 77.9956Z" fill="#ed1c24" fill-rule="evenodd"/>
<path transform="matrix(1,0,0,-1,0,269.2913)" d="M25.7009 69.8051H25.1714V70.2346L22.2477 72.6052V66.6507L57.8245 36.4048 57.7307 43.8338Z" fill="#ed1c24" fill-rule="evenodd"/>
<path transform="matrix(1,0,0,-1,0,269.2913)" d="M22.2477 63.9601 57.8245 32.8119V25.2269L54.9567 19.4034C40.718 27.3784 31.6624 36.2806 22.2477 46.9035Z" fill="#ed1c24" fill-rule="evenodd"/>
<path transform="matrix(1,0,0,-1,0,269.2913)" d="M82.8924 77.146H92.8202V49.8557H82.8924Z" fill="#231f20" fill-rule="evenodd"/>
<path transform="matrix(1,0,0,-1,0,269.2913)" d="M80.024 114.944H92.1033V90.4533H80.024Z" fill="#231f20" fill-rule="evenodd"/>
<path transform="matrix(1,0,0,-1,0,269.2913)" d="M27.267 86.2495H33.3618V71.9005H27.267Z" fill="#ffffff" fill-rule="evenodd"/>
<path transform="matrix(1,0,0,-1,0,269.2913)" d="M39.0977 81.3498H45.5513V63.851H39.0977Z" fill="#ffffff" fill-rule="evenodd"/>
<path transform="matrix(1,0,0,-1,0,269.2913)" d="M84.9878 75.0506H90.7245V51.9525H84.9878Z" fill="#ffffff" fill-rule="evenodd"/>
<path transform="matrix(1,0,0,-1,0,269.2913)" d="M82.1194 112.8478H90.0077V92.5495H82.1194Z" fill="#ffffff" fill-rule="evenodd"/>
<path transform="matrix(1,0,0,-1,0,269.2913)" d="M107.9334 154.8451C107.9909 155.4574 94.3512 188.5989 132.3128 200.1229 150.5563 201.6564 150.8474 185.6676 149.8796 184.2123 148.4768 183.1813 144.1519 184.7903 144.413 184.5354 143.9671 185.1452 143.5212 185.754 143.0756 186.3632 143.0756 186.3632 144.5564 193.657 137.3244 193.2831 136.5803 193.8138 136.5559 194.1032 135.987 194.5885 135.4175 195.0741 135.3563 193.7585 135.3563 193.7585 135.5766 193.301 135.7971 192.8424 136.0176 192.3849 136.0176 191.9534 133.2539 184.8475 141.1019 185.2325 141.8652 184.1051 141.8638 184.0391 142.5648 183.3007 143.2661 182.5628 140.6801 177.8842 140.6801 177.8842 140.6795 177.7371 134.4883 175.6638 128.8959 184.4952 119.3057 187.5254 106.6394 171.9533 127.8986 155.0622 146.0205 147.8869 143.7812 144.9235 144.8138 144.0774 145.0114 142.6255 141.8638 142.0157 140.1985 142.4191 140.1979 142.4197 140.0253 139.0382 138.7287 138.3616 137.4321 137.6858 126.1962 138.9549 130.7767 122.9788 132.7791 121.4683 132.9996 123.4001 134.0623 126.7826 135.0173 129.1927 140.5987 125.6128 138.0368 121.6261 137.5262 119.6841 148.2364 110.1311 148.2364 110.1311 148.2364 110.1311 154.9786 110.1311 151.0889 104.8059 149.8331 102.8367 154.0108 101.022 154.55 98.5507 154.4669 96.7997 147.9764 98.8271 146.2487 100.0726 144.7092 99.4847 144.4518 100.7838 141.3045 102.3599 140.6381 102.5376 138.6533 102.7295 139.3614 102.1408 141.2408 100.5761 148.4016 96.3448 146.5486 93.1031 140.9635 97.342 133.0302 104.5689 131.6424 105.5965 109.7626 107.1811 90.913 137.5194 107.9334 154.8451ZM131.5463 102.7111 140.584 94.9354C140.584 94.9354 140.1403 93.56 138.2017 91.597 136.2623 89.6346 134.8739 91.3802 134.8121 91.3192 134.7503 91.258 131.4907 94.4391 130.8651 96.1645 130.8815 97.5796 131.9539 102.2975 131.5463 102.7111ZM119.9682 106.6796C119.9682 106.6796 124.7723 104.1534 129.9424 103.61 130.0425 102.1734 127.4049 83.5671 124.3828 92.4616 122.3538 97.8874 120.8934 101.6966 119.9682 106.6796ZM118.3615 107.606C116.7392 105.7348 115.9773 104.7702 114.355 102.8996 110.7935 104.5378 108.3118 106.3789 104.3739 110.3445 105.7819 113.0491 106.2298 114.0483 107.6386 116.7523 111.5614 111.2434 116.2862 108.7747 118.3615 107.606ZM170.0717 118.434C166.2616 117.288 163.0675 116.1232 158.9924 114.3082L157.2412 119.1101C160.3993 121.3101 163.3059 122.7317 166.4643 124.9305ZM174.3449 119.4466 171.3796 128.4525C176.5684 131.9797 180.9564 135.032 186.1458 138.56 186.1362 132.8091 186.1268 127.0585 186.1172 121.307 181.5284 120.8401 178.615 120.4812 174.3449 119.4466ZM152.5969 183.9155C152.9748 191.4877 151.6286 192.3778 149.3087 195.6118 152.4997 201.85 154.9647 206.0169 158.1559 212.2557 167.4658 212.2557 176.775 212.2557 186.0846 212.2557 186.0891 202.7548 186.0931 194.6174 186.0973 185.1171 177.9211 175.6256 169.7511 166.3013 161.6295 156.8699 161.3679 156.5651 152.8608 184.2211 152.5969 183.9155ZM98.7792 212.3104 124.0586 212.3059 118.2983 195.7501C100.4581 185.5261 102.2298 165.7641 105.5174 155.4197 105.5174 155.4197 98.5484 152.0671 98.6066 134.2579ZM70.916 212.3569H94.6689L94.6672 208.5602 79.7176 179.4815ZM4.7769 212.3569H37.0896L66.7131 154.2762 55.0797 131.6463 4.7551 185.3915ZM4.7769 138.8064 28.8119 120.327 11.649 103.127 19.3626 98.6978V92.2042L4.7769 97.8987ZM7.5484 71.5507C11.8508 71.5507 15.2983 71.5507 19.6004 71.5507 19.5775 64.2246 19.5985 57.7071 19.5761 50.3796 14.1574 56.5954 10.6889 63.112 7.5484 71.5507ZM148.2123 142.8885C144.2149 151.6039 137.5481 153.5675 128.7771 157.2755 132.2382 163.8567 135.3308 169.1116 138.7922 175.6925 138.8815 175.6704 139.604 175.7721 139.8804 175.2656L154.1891 149.0508Z" fill="#ffffff" fill-rule="evenodd"/>
<path transform="matrix(1,0,0,-1,0,269.2913)" d="M125.6916 17.4991 123.2527 17.5042C123.8771 19.245 124.7474 21.6927 125.3713 23.4346 124.8106 22.788 124.2499 22.1411 123.6892 21.494 122.262 21.1462 120.8347 20.7969 119.4075 20.4491 118.3881 19.603 117.3688 18.7574 116.3494 17.9113 116.5533 19.2552 116.7565 20.5982 116.9609 21.9419 118.5412 22.7384 120.1212 23.5341 121.7013 24.3303 122.2109 25.2754 122.7206 26.2208 123.2303 27.1664 120.6309 26.2706 118.0312 25.3755 115.4313 24.4794 115.7873 25.7743 116.2449 27.0184 117.4198 27.913 120.5787 28.8587 123.7382 29.804 126.8972 30.7497 126.8473 38.5123 126.7977 46.2745 126.7481 54.0369 126.4397 60.3527 126.1318 66.6677 125.8243 72.9836 120.6524 70.2626 107.6596 65.2808 108.8561 60.605 111.7103 60.7547 114.5653 60.9032 117.4198 61.0529 116.2474 59.6594 113.546 59.7589 111.6085 59.112 113.495 58.0181 117.0629 56.9228 120.4778 57.1714 118.6449 55.2951 114.0551 56.9713 110.844 56.8732 113.1375 55.1818 115.4313 53.4895 117.7257 51.7972 113.5633 52.6949 110.6986 54.3739 107.174 56.1266 106.8752 53.8291 111.2281 49.2951 114.5106 48.653 109.787 46.2657 104.8805 54.1865 104.8805 54.1865 104.3751 54.9346 103.1219 62.4042 106.5617 65.3822 112.8807 69.0636 119.2 72.7455 125.5184 76.4269 125.4229 80.331 125.0308 82.995 124.829 86.6446 124.7321 88.3953 127.9502 88.668 128.4548 86.8402 128.5707 84.3999 128.5294 81.654 128.497 77.9661 131.489 79.6175 134.14 81.4354 136.4508 83.4194 137.5665 83.5226 138.4699 84.7063 136.5656 85.5309 135.4946 86.1965 135.1423 86.0559 134.8937 88.124 145.2005 91.0738 141.5353 83.0639 138.5291 80.7486 135.265 78.3096 131.9845 76.6766 128.7122 74.6416 128.8536 69.421 128.9957 64.2002 129.138 58.9796 129.858 49.8464 130.7378 42.6983 131.1925 30.2601 131.8552 28.7552 132.5191 27.2503 133.183 25.7457 134.4107 25.3174 135.6386 24.8905 136.8675 24.463 134.9433 24.5911 133.02 24.7198 131.097 24.8485 129.2947 22.3988 127.4927 19.9483 125.6916 17.4991" fill="#ed1c24" fill-rule="evenodd"/>
<path transform="matrix(1,0,0,-1,0,269.2913)" d="M136.8726 84.4101C136.7269 84.6286 136.082 84.721 135.8518 84.8421 133.8024 85.415 133.8066 87.3173 133.5798 88.9248 132.1739 89.8716 131.5219 90.5145 130.4969 91.7019 130.1318 90.4317 130.0139 89.1317 129.6697 87.9035 129.801 85.0408 129.8132 82.9159 129.7891 80.0348 132.1316 81.4059 133.3678 82.2949 135.4283 84.0634 135.7614 84.0609 136.6305 84.0997 136.8726 84.4101ZM124.1841 77.3614C124.056 80.5822 123.5713 83.2003 123.3354 86.4099 122.3881 85.8538 121.8464 85.3404 120.8954 84.7905 113.6415 80.5986 106.8094 77.5959 98.6873 75.5756 98.6766 56.4457 98.6766 36.599 98.6652 17.4685 104.1987 17.4614 109.6251 17.4546 115.1586 17.447 115.4109 19.1123 115.7142 20.8159 115.9671 22.4821 117.3668 23.1868 119.0443 23.8723 120.4441 24.5769 120.5957 24.8598 120.8174 25.274 120.9691 25.5563 119.0044 24.8797 117.6528 24.414 115.6881 23.7368L113.7665 23.0805 114.1608 24.9446C114.5795 26.4699 115.725 28.101 117.0286 29.0942 119.4248 30.3137 122.8144 30.9917 125.4061 31.767 125.3571 39.3273 125.6477 46.1758 125.5992 53.7367 125.3106 59.6409 124.9226 65.2618 124.6351 71.166 122.2869 69.9874 120.6692 69.2297 118.3289 68.0255 116.5467 67.1088 110.5923 64.4927 110.2635 61.772 112.8628 61.9078 114.7788 61.7014 117.3784 61.8378L119.1864 61.9328 118.0213 60.5469C117.0967 59.449 115.5651 59.1313 114.0735 58.8606 116.1125 58.1494 118.4939 57.8149 120.4211 57.9557L122.4893 58.106 121.0399 56.6229C119.4446 54.9893 116.2429 55.5154 113.5225 55.8743 115.0784 54.7262 116.6355 53.5779 118.192 52.4299L121.1369 50.258 117.5593 51.0296C114.048 51.787 111.3174 53.1587 108.2883 54.6871 108.9147 53.4589 110.2354 52.1016 110.914 51.5149 111.9169 50.6472 113.3396 49.6831 114.6617 49.4246L116.9087 48.9849 114.8649 47.9514C110.6776 45.8348 105.9857 49.966 104.0114 53.1544 103.1136 54.4833 102.9677 59.3847 103.2092 60.9069 103.4654 62.5232 104.3974 65.626 105.9525 66.5314 112.1366 70.1351 118.0001 73.7592 124.1841 77.3614ZM117.995 17.443C119.556 17.4413 120.562 17.4393 122.1225 17.4373 122.4091 18.237 122.9187 19.7614 123.2056 20.5611 121.949 20.2552 121.3458 19.8641 120.09 19.5576 119.4987 19.0664 118.5868 17.9337 117.995 17.443ZM119.3304 97.0744C115.8058 98.3735 112.282 99.9394 109.1605 102.0396 107.0203 103.4793 105.2932 105.0704 103.4348 106.8338 102.0883 108.1114 100.1778 109.5894 98.7129 110.6459 98.7072 100.5143 98.7313 89.9028 98.7256 79.7712 107.2811 81.9125 114.647 85.2625 122.2588 89.6964 121.3152 92.1671 120.2658 94.5998 119.3304 97.0744ZM140.612 89.894C144.8133 87.7124 142.5175 82.4431 139.2792 79.9495 136.2591 77.6928 133.0869 76.0833 129.8948 74.1249 130.0323 69.0622 130.3407 64.0843 130.4785 59.0216L132.8261 30.7395 134.3197 26.8668C136.986 25.9373 139.6746 24.5151 142.2882 23.4099 153.2877 30.6629 163.2951 39.5597 171.2401 50.0488 177.609 58.4572 183.6023 69.3048 185.3303 79.8437 185.3277 92.5342 185.3257 105.2237 185.3232 117.9136 176.6716 116.9739 168.8848 115.3338 160.9498 111.5314 161.5615 109.6087 162.0992 107.6579 162.6038 105.7037 163.425 102.5289 164.1532 99.3311 164.9611 96.1532 165.5575 93.8072 166.2324 91.1438 167.2248 88.937L167.6767 87.9321 166.5797 87.8321C165.8327 87.764 165.0637 87.9545 164.3043 88.2544 164.6649 87.8411 165.0268 87.4281 165.3863 87.0171 166.5439 85.6925 170.3463 81.582 170.6355 79.8375 171.07 78.247 169.7417 77.5029 168.336 78.2617 167.688 78.5594 166.303 79.6825 165.0733 80.6434 165.4472 79.9061 165.8327 79.185 165.9966 78.853 166.5011 77.8311 168.3978 74.4721 167.2268 73.4947 166.6216 72.9896 165.8265 73.3533 165.2542 73.7062 163.1951 74.9761 161.0512 76.7803 159.173 78.3133 156.314 80.6479 153.4986 83.039 150.6818 85.4237 147.9983 87.6963 145.3173 89.9768 142.5997 92.2093 142.0296 91.3269 141.3777 90.5839 140.612 89.894ZM142.1569 23.3232 136.8153 23.6792C135.0351 23.7977 133.6819 23.724 131.9023 23.8431 130.4938 21.9291 128.8517 19.3952 127.4437 17.4813 129.6799 17.4934 130.2778 17.4832 132.514 17.496 135.2945 19.0621 139.4785 21.5614 142.1569 23.3232" fill="#82c343" fill-rule="evenodd"/>
<path transform="matrix(1,0,0,-1,0,269.2913)" d="M4.7991 263.992H186.0528V216.1026H4.7991Z" fill="#f7c221" fill-rule="evenodd"/>
<path transform="matrix(1,0,0,-1,0,269.2913)" d="M182.7709 252.4184 179.2979 226.7734H168.9293L164.9854 252.4184H172.192C173.0228 245.3564 173.6152 239.3821 173.9752 234.5049 174.3296 239.4357 174.706 243.8161 175.0941 247.6488L175.5643 252.4184ZM163.8278 244.6588H157.4858V246.5575C157.4858 247.4444 157.4031 248.0114 157.2423 248.2549 157.0819 248.4984 156.8103 248.6174 156.4282 248.6174 156.0183 248.6174 155.7082 248.455 155.4979 248.1248 155.287 247.8005 155.1818 247.303 155.1818 246.6377 155.1818 245.7842 155.2978 245.1348 155.5362 244.7028 155.7629 244.2696 156.4115 243.7509 157.4691 243.1349 160.5101 241.3721 162.4209 239.9281 163.2135 238.7979 164.0049 237.6683 164.3987 235.8462 164.3987 233.3319 164.3987 231.5047 164.177 230.1585 163.7391 229.2925 163.3014 228.4279 162.4547 227.6977 161.202 227.1135 159.9452 226.5299 158.4887 226.2325 156.8211 226.2325 154.9933 226.2331 153.4317 226.5732 152.1408 227.2493 150.8448 227.9245 149.9975 228.7848 149.5987 229.8277 149.1999 230.8771 149.0003 232.3585 149.0003 234.2832V235.9596H155.3426V232.8401C155.3426 231.8774 155.4316 231.2606 155.6082 230.9854 155.791 230.7146 156.1071 230.5743 156.5612 230.5743 157.015 230.5743 157.3532 230.7472 157.5748 231.0987 157.7959 231.4449 157.9068 231.9633 157.9068 232.6501 157.9068 234.159 157.6967 235.1483 157.2755 235.6135 156.8435 236.0786 155.7746 236.8514 154.0797 237.9385 152.3792 239.042 151.2547 239.8365 150.7008 240.334 150.1523 240.8315 149.6931 241.5178 149.3331 242.3934 148.9674 243.2693 148.7903 244.3887 148.7903 245.7516 148.7903 247.7146 149.0451 249.1526 149.5599 250.0605 150.0695 250.9696 150.9004 251.6774 152.0473 252.1911 153.1933 252.6996 154.5786 252.9587 156.2012 252.9587 157.9788 252.9587 159.4908 252.6778 160.7377 252.121 161.9889 251.5589 162.8147 250.8557 163.2243 250.0013 163.6282 249.1526 163.8278 247.7089 163.8278 245.67ZM137.9673 247.7954 137.7065 245.0381C138.6592 247.0113 140.0386 248.0604 141.8443 248.1732V240.7774C140.6426 240.7774 139.7614 240.6209 139.197 240.3014 138.6374 239.9822 138.2885 239.5446 138.1609 238.9771 138.0277 238.4144 137.9673 237.1113 137.9673 235.0726V226.7734H131.4094V247.7954ZM122.6965 240.334V241.8695C122.6965 242.9563 122.6358 243.6593 122.5193 243.9777 122.3977 244.292 122.1537 244.4536 121.788 244.4536 121.3336 244.4536 121.0513 244.3187 120.9455 244.0485 120.8347 243.7784 120.78 243.0533 120.78 241.8695V240.334ZM129.2709 236.9115H120.78V232.3641C120.78 231.4123 120.852 230.8014 120.9903 230.5261 121.1349 230.2551 121.4056 230.1146 121.8044 230.1146 122.3028 230.1151 122.6358 230.298 122.8017 230.6611 122.9678 231.0287 123.0565 231.7314 123.0565 232.7751V235.5486H129.2709V233.9972C129.2709 232.7 129.1825 231.6991 129.0161 231.0012 128.8505 230.3036 128.4568 229.5632 127.842 228.7681 127.222 227.9795 126.4408 227.3837 125.4934 226.9894 124.5518 226.59 123.3609 226.3949 121.932 226.3949 120.5473 226.3949 119.3292 226.5891 118.2651 226.9786 117.2069 227.3683 116.3818 227.903 115.795 228.5847 115.202 229.2664 114.7921 230.0176 114.5653 230.8337 114.3386 231.6557 114.2277 232.8452 114.2277 234.4073V240.5392C114.2277 242.3781 114.482 243.8269 114.9866 244.8865 115.4957 245.9466 116.3322 246.7627 117.4898 247.3245 118.6475 247.8929 119.9772 248.1732 121.4776 248.1732 123.317 248.1741 124.8347 247.8331 126.0312 247.1519 127.2271 246.471 128.0636 245.5673 128.5452 244.4434 129.0271 243.3183 129.2709 241.7394 129.2709 239.7008ZM113.3464 247.7954 110.7383 226.7734H103.6091C103.2219 229.3415 102.7735 232.721 102.2635 236.9115 102.0923 235.0726 101.8483 233.2128 101.5322 231.3366L100.8071 226.7734H93.6782L90.9037 247.7954H96.5531C96.5971 247.2437 97.0736 243.2375 97.9821 235.7702 98.0427 236.533 98.5306 240.5392 99.4385 247.7954H104.8779L106.2068 235.7702C106.412 239.2795 106.9109 243.2857 107.7029 247.7954ZM83.4588 241.9937C83.4588 243.0751 83.3981 243.7509 83.2822 244.0318 83.16 244.3136 82.9057 244.4536 82.5177 244.4536 82.1296 244.4536 81.8691 244.313 81.7424 244.0318 81.6097 243.7509 81.5428 243.0751 81.5428 241.9937V232.5101C81.5428 231.5154 81.6097 230.8663 81.7424 230.5687 81.8691 230.2662 82.1245 230.1146 82.5012 230.1146 82.8941 230.1151 83.1489 230.2551 83.2708 230.5261 83.3981 230.8014 83.4593 231.3964 83.4593 232.2992ZM90.0173 240.41V235.2626C90.0173 233.3747 89.9172 231.9851 89.7236 231.1038 89.53 230.2228 89.1145 229.4008 88.4724 228.6332 87.8352 227.8712 87.0151 227.3029 86.0182 226.9409 85.0153 226.5732 83.8638 226.3949 82.5673 226.3949 81.1159 226.3949 79.8919 226.5466 78.8842 226.8592 77.8757 227.1733 77.095 227.6436 76.5414 228.2712 75.9813 228.8982 75.5833 229.6602 75.3449 230.5528 75.1065 231.4449 74.99 232.7803 74.99 234.5641V239.9556C74.99 241.9072 75.206 243.4317 75.6386 244.5296 76.0706 245.6274 76.8518 246.5079 77.9754 247.1729 79.1002 247.8387 80.5399 248.1732 82.2909 248.1732 83.7638 248.1741 85.0266 247.9572 86.0791 247.5303 87.137 247.1034 87.9511 246.5461 88.522 245.8599 89.098 245.1736 89.4861 244.4647 89.7012 243.7401 89.9121 243.0099 90.0173 241.9021 90.0173 240.41ZM72.9295 241.0801H67.1196V242.2154C67.1196 243.1885 67.064 243.805 66.9481 244.0644 66.8373 244.3243 66.5549 244.4536 66.1008 244.4536 65.7292 244.4536 65.4528 244.3346 65.27 244.097 65.0871 243.8592 64.9928 243.5026 64.9928 243.0258 64.9928 242.3832 65.0424 241.9072 65.1311 241.6096 65.2252 241.3069 65.5024 240.9769 65.9619 240.6209 66.4217 240.2583 67.3634 239.7334 68.7926 239.0522 70.6975 238.1443 71.9439 237.2842 72.542 236.4837 73.1353 235.6784 73.434 234.5156 73.434 232.9804 73.434 231.2722 73.2067 229.9793 72.7523 229.1091 72.2982 228.2389 71.5343 227.5679 70.4707 227.0976 69.4069 226.6268 68.1222 226.3949 66.6156 226.3949 64.9539 226.3949 63.5255 226.6483 62.3398 227.1518 61.1546 227.6603 60.3397 228.3463 59.8969 229.2117 59.4536 230.0769 59.2325 231.3907 59.2325 233.1428V234.1539H65.0424V232.8236C65.0424 231.694 65.1149 230.9581 65.264 230.6228 65.408 230.2826 65.696 230.1146 66.128 230.1146 66.5938 230.1151 66.9206 230.2285 67.1029 230.4553 67.2857 230.682 67.3801 231.1631 67.3801 231.8882 67.3801 232.8942 67.2636 233.5212 67.0252 233.7746 66.7766 234.0295 65.5024 234.775 63.2086 236.0245 61.2814 237.079 60.1072 238.0354 59.6866 238.9011 59.2656 239.7606 59.0547 240.7825 59.0547 241.9665 59.0547 243.6432 59.2821 244.8814 59.7359 245.6816 60.19 246.4761 60.9605 247.0921 62.0518 247.5247 63.1369 247.9581 64.4003 248.1732 65.84 248.1732 67.2636 248.1741 68.4822 247.9949 69.4789 247.6437 70.4818 247.2877 71.2514 246.822 71.7831 246.2434 72.3203 245.6592 72.6471 245.1246 72.758 244.6271 72.8739 244.1293 72.9295 243.3509 72.9295 242.2964ZM57.1884 252.4184V226.7734H50.4369V252.4184ZM48.0827 247.7954V226.7734H41.4139L41.5247 228.5147C41.0709 227.8054 40.5111 227.2759 39.8463 226.925 39.1819 226.5681 38.4174 226.3949 37.5534 226.3949 36.5678 226.3949 35.7477 226.5625 35.0997 226.8975 34.4511 227.2385 33.9752 227.687 33.6651 228.2437 33.3547 228.8064 33.1668 229.39 33.0883 229.9961 33.012 230.6069 32.9723 231.8125 32.9723 233.6179V247.7954H39.5306V233.4886C39.5306 231.8505 39.5807 230.8822 39.6853 230.5743 39.7854 230.2662 40.0683 230.1146 40.5224 230.1146 41.01 230.1151 41.298 230.2713 41.3864 230.5905 41.4799 230.9097 41.5247 231.9259 41.5247 233.6454V247.7954ZM30.5246 252.4184V226.7734H24.5534V244.0862L22.1661 226.7734H17.9291L15.4142 243.6917V226.7734H9.4439V252.4184H18.2891C18.5496 250.8772 18.8212 249.0602 19.1149 246.9679L20.056 240.4423 21.6125 252.4184Z" fill="#231f20" fill-rule="evenodd"/>
<path transform="matrix(1,0,0,-1,0,269.2913)" d="M36.1843 136.0604C37.6682 136.0604 38.8729 134.8849 38.8729 133.4356 38.8729 131.9865 37.6688 130.8104 36.1843 130.8104 34.6992 130.8104 33.4947 131.9859 33.4947 133.4356 33.4947 134.8849 34.6992 136.0604 36.1843 136.0604" fill="#ed1c24" fill-rule="evenodd"/>
</svg>
