<svg xmlns="http://www.w3.org/2000/svg" xmlns:xlink="http://www.w3.org/1999/xlink" version="1.1" width="273.5pt" height="273.5pt" viewBox="0 0 273.5 273.5">
<defs>
<clipPath id="clip_1">
<path transform="matrix(1,0,0,-1,0,273.5)" d="M.014999 273.5H273.49998V0H.014999Z"/>
</clipPath>
</defs>
<g id="layer_1" data-name="Document">
<g clip-path="url(#clip_1)">
<path transform="matrix(1,0,0,-1,0,273.5)" d="M.014999 0H273.49998V273.5H.014999Z" fill="#ffffff"/>
</g>
<path transform="matrix(1,0,0,-1,0,273.5)" d="M160.392 113.384C159.234 113.384 158.119 113.982 157.56 115.021 156.768 116.492 157.393 118.287 158.956 119.034L167.826 123.265C167.962 123.329 168.037 123.477 168.01 123.625L167.723 125.197C167.546 126.16 167.815 127.151 168.454 127.893L170.625 130.414C170.754 130.563 170.725 130.791 170.564 130.904L167.542 133.019C166.336 133.863 165.924 135.387 166.556 136.671L168.331 140.274C168.4 140.415 168.362 140.585 168.239 140.682L163.561 144.385C162.493 145.23 162.137 146.632 162.683 147.839L164.413 151.665C164.49 151.833 164.414 152.032 164.244 152.107L159.809 154.066C158.224 154.766 159.849 154.955 160.593 156.447 161.337 157.94 160.918 160.173 162.504 159.472L170.016 156.154C171.561 155.471 172.256 153.761 171.587 152.282L169.547 147.77C169.484 147.631 169.524 147.466 169.644 147.371L174.389 143.616C175.485 142.748 175.827 141.298 175.226 140.075L173.523 136.619C173.45 136.471 173.496 136.293 173.631 136.198L177.305 133.629C177.998 133.143 178.452 132.412 178.56 131.604 178.668 130.798 178.421 129.984 177.877 129.352L174.288 125.186C174.223 125.11 174.195 125.008 174.213 124.909L174.707 122.214C174.943 120.925 174.257 119.637 173.014 119.044L161.823 113.706C161.364 113.488 160.875 113.384 160.392 113.384" fill="#6e6e6e"/>
<path transform="matrix(1,0,0,-1,0,273.5)" d="M25.261 22.507H247.91501V44.392H25.261Z" fill="#e94c15"/>
<path transform="matrix(1,0,0,-1,0,273.5)" d="M35.665 79.48 34.499 51.863 28.382 51.27 26.951 79.644 35.665 79.48" fill="#004f8c"/>
<path transform="matrix(1,0,0,-1,0,273.5)" d="M55.877 52.148 50.292 50.595 43.336 66.265 43.93 52.906 38.775 52.497 37.977 82.119 43.766 82.078 50.722 66.367 50.128 81.669 55.284 81.424 55.877 52.148" fill="#004f8c"/>
<path transform="matrix(1,0,0,-1,0,273.5)" d="M78.113 49.552H73.797V51.781C72.242 50.295 70.558 49.552 68.744 49.552 65.539 49.552 62.894 51.022 60.807 53.964 58.72 56.906 57.677 60.651 57.677 65.2 57.677 69.041 58.638 72.337 60.561 75.088 62.484 77.839 64.775 79.214 67.435 79.214 69.958 79.214 72.161 78.267 74.042 76.371 76.02 74.38 77.295 71.673 77.868 68.249L71.199 67.574V71.42L64.632 70.889 64.428 57.591H71.199V60.414L67.312 60.578 67.558 64.138 78.113 64.301V49.552" fill="#004f8c"/>
<path transform="matrix(1,0,0,-1,0,273.5)" d="M86.726 52.865C86.726 51.079 85.498 50.186 83.044 50.186 82.226 50.186 81.523 50.37 80.937 50.738 80.241 51.175 79.894 51.774 79.894 52.538 79.894 53.288 80.33 53.957 81.203 54.543 81.939 55.048 82.607 55.3 83.207 55.3 83.848 55.3 84.544 55.109 85.294 54.728 86.248 54.236 86.726 53.615 86.726 52.865" fill="#004f8c"/>
<path transform="matrix(1,0,0,-1,0,273.5)" d="M115.693 80.135 114.854 71.85 104.953 71.543 105.26 68.065 113.259 68.168 112.788 61.417 106.099 60.905 107.101 50.391 99.471 49.776 100.023 79.603 115.693 80.135" fill="#004f8c"/>
<path transform="matrix(1,0,0,-1,0,273.5)" d="M131.977 69.374 131.895 75.777 124.898 75.573 125.021 69.456 131.977 69.374ZM138.646 72.934C138.646 70.779 138.229 68.911 137.398 67.329 136.498 65.61 135.318 64.703 133.859 64.608L131.056 64.383 138.053 54.829 132.774 49.143 125.819 62.665 125.574 52.027 119.273 50.942 117.309 79.931 131.097 81.566C131.329 81.594 131.608 81.607 131.936 81.607 133.886 81.607 135.475 80.864 136.702 79.378 137.998 77.81 138.646 75.661 138.646 72.934" fill="#004f8c"/>
<path transform="matrix(1,0,0,-1,0,273.5)" d="M155.912 84.41C155.912 83.415 155.584 82.604 154.93 81.976 154.357 81.417 153.709 81.138 152.986 81.138 152.25 81.138 151.596 81.417 151.022 81.976 150.367 82.604 150.041 83.415 150.041 84.41 150.041 85.405 150.367 86.218 151.022 86.845 151.596 87.404 152.25 87.684 152.986 87.684 153.709 87.684 154.357 87.404 154.93 86.845 155.584 86.218 155.912 85.405 155.912 84.41ZM153.15 57.734V71.543L146.768 71.011 146.645 57.734H153.15ZM149.468 84.41C149.468 83.415 149.141 82.604 148.486 81.976 147.913 81.417 147.258 81.138 146.521 81.138 145.799 81.138 145.151 81.417 144.578 81.976 143.924 82.604 143.596 83.415 143.596 84.41 143.596 85.405 143.924 86.218 144.578 86.845 145.151 87.404 145.799 87.684 146.521 87.684 147.258 87.684 147.913 87.404 148.486 86.845 149.141 86.218 149.468 85.405 149.468 84.41ZM159.84 64.138C159.84 60.101 159.049 56.719 157.467 53.991 155.762 51.086 153.525 49.634 150.756 49.634 147.633 49.634 145.069 51.134 143.064 54.134 141.101 57.093 140.119 60.816 140.119 65.304 140.119 69.081 141.039 72.371 142.881 75.174 144.722 77.977 146.944 79.378 149.549 79.378 152.618 79.378 155.1 77.963 156.996 75.133 158.891 72.303 159.84 68.638 159.84 64.138" fill="#004f8c"/>
<path transform="matrix(1,0,0,-1,0,273.5)" d="M179.765 50.554 173.014 50.595 172.727 62.256 167.02 62.296 167.613 50.983 162.458 50.554 161.66 82.119 168.41 82.078 168.697 70.418 174.404 70.336 173.812 81.689 178.967 82.119 179.765 50.554" fill="#004f8c"/>
<path transform="matrix(1,0,0,-1,0,273.5)" d="M195.127 53.336 182.158 52.354V80.319L189.645 80.81 187.886 60.107 194.964 61.703 195.127 53.336" fill="#004f8c"/>
<path transform="matrix(1,0,0,-1,0,273.5)" d="M204.804 74.897C204.804 72.812 203.283 71.768 200.242 71.768 199.383 71.768 198.598 71.938 197.889 72.279 196.894 72.757 196.396 73.493 196.396 74.488 196.382 74.584 196.382 74.639 196.396 74.652 196.491 75.525 197.057 76.282 198.094 76.923 198.967 77.482 199.764 77.762 200.487 77.762 201.265 77.762 202.117 77.537 203.045 77.087 204.217 76.514 204.804 75.784 204.804 74.897ZM204.804 69.415 203.556 51.434 197.439 50.861 196.008 69.579 204.804 69.415" fill="#004f8c"/>
<path transform="matrix(1,0,0,-1,0,273.5)" d="M226.938 61.028C226.529 57.646 225.486 54.911 223.809 52.825 222.117 50.697 220.078 49.634 217.691 49.634 214.486 49.634 211.842 51.106 209.754 54.052 207.668 56.998 206.625 60.748 206.625 65.304 206.625 69.163 207.582 72.474 209.499 75.235 211.414 77.997 213.709 79.378 216.383 79.378 218.906 79.378 221.108 78.423 222.99 76.514 224.967 74.509 226.242 71.795 226.816 68.372L220.146 67.697V71.543L213.58 71.011 213.375 57.734H220.146V61.028H226.938" fill="#004f8c"/>
<path transform="matrix(1,0,0,-1,0,273.5)" d="M246.844 50.554 240.092 50.595 239.806 62.256 234.098 62.296 234.691 50.983 229.537 50.554 228.738 82.119 235.489 82.078 235.775 70.418 241.483 70.336 240.891 81.689 246.045 82.119 246.844 50.554" fill="#004f8c"/>
<path transform="matrix(1,0,0,-1,0,273.5)" d="M31.679 39.236 31.268 29.518 29.116 29.309 28.612 39.294 31.679 39.236" fill="#ffffff"/>
<path transform="matrix(1,0,0,-1,0,273.5)" d="M38.72 29.057 36.344 29.07 36.243 33.175 34.234 33.188 34.443 29.208 32.629 29.057 32.348 40.165 34.724 40.15 34.825 36.047 36.833 36.018 36.625 40.014 38.439 40.165 38.72 29.057" fill="#ffffff"/>
<path transform="matrix(1,0,0,-1,0,273.5)" d="M44.472 35.68 44.443 37.933 41.981 37.861 42.024 35.709 44.472 35.68ZM46.818 36.933C46.818 36.174 46.672 35.517 46.379 34.96 46.063 34.355 45.647 34.036 45.134 34.002L44.147 33.923 46.61 30.561 44.752 28.56 42.305 33.318 42.218 29.574 40.001 29.193 39.31 39.395 44.162 39.971C44.244 39.98 44.342 39.985 44.457 39.985 45.144 39.985 45.703 39.724 46.134 39.2 46.59 38.648 46.818 37.893 46.818 36.933" fill="#ffffff"/>
<path transform="matrix(1,0,0,-1,0,273.5)" d="M56.487 35.514 56.444 38.322 53.867 38.229 53.91 35.55 56.487 35.514ZM58.82 37.394C58.82 36.486 58.686 35.718 58.417 35.09 58.115 34.369 57.69 33.985 57.143 33.937L54.248 33.686 54.148 29.057 51.895 29.251 51.182 39.437 56.286 40.014C56.372 40.023 56.435 40.028 56.473 40.028 57.03 40.028 57.546 39.79 58.021 39.315 58.554 38.787 58.82 38.146 58.82 37.394" fill="#ffffff"/>
<path transform="matrix(1,0,0,-1,0,273.5)" d="M63.168 34.29 62.916 36.774H61.167L61.225 34.232 63.168 34.29ZM65.969 30.417 63.291 29.956 62.967 32.217H61.858L61.815 28.884 58.64 28.941 59.619 39.128 64.63 39.87 65.969 30.417" fill="#ffffff"/>
<path transform="matrix(1,0,0,-1,0,273.5)" d="M71.21 35.68 71.181 37.933 68.719 37.861 68.762 35.709 71.21 35.68ZM73.557 36.933C73.557 36.174 73.41 35.517 73.118 34.96 72.801 34.355 72.386 34.036 71.872 34.002L70.886 33.923 73.348 30.561 71.491 28.56 69.043 33.318 68.956 29.574 66.739 29.193 66.048 39.395 70.9 39.971C70.982 39.98 71.08 39.985 71.195 39.985 71.882 39.985 72.441 39.724 72.873 39.2 73.329 38.648 73.557 37.893 73.557 36.933" fill="#ffffff"/>
<path transform="matrix(1,0,0,-1,0,273.5)" d="M79.985 36.832 77.998 36.651 78.2 28.084 75.594 28.222 76.004 36.817H74.018L74.104 39.467 79.928 39.322 79.985 36.832" fill="#ffffff"/>
<path transform="matrix(1,0,0,-1,0,273.5)" d="M86.861 29.617 84.896 29.07 82.448 34.585 82.657 29.884 80.842 29.74 80.562 40.165 82.599 40.15 85.047 34.621 84.838 40.007 86.652 39.92 86.861 29.617" fill="#ffffff"/>
<path transform="matrix(1,0,0,-1,0,273.5)" d="M93.196 37.242 90.129 37.142 90.115 35.823 92.476 35.795 92.491 33.333 89.496 33.175 89.524 31.813 93.009 31.95 92.901 28.747 87.89 28.603 87.595 40.086 93.196 40.071V37.242" fill="#ffffff"/>
<path transform="matrix(1,0,0,-1,0,273.5)" d="M99.1 35.68 99.071 37.933 96.609 37.861 96.652 35.709 99.1 35.68ZM101.447 36.933C101.447 36.174 101.3 35.517 101.008 34.96 100.691 34.355 100.276 34.036 99.762 34.002L98.776 33.923 101.238 30.561 99.381 28.56 96.933 33.318 96.847 29.574 94.629 29.193 93.938 39.395 98.79 39.971C98.872 39.98 98.97 39.985 99.085 39.985 99.772 39.985 100.331 39.724 100.763 39.2 101.219 38.648 101.447 37.893 101.447 36.933" fill="#ffffff"/>
<path transform="matrix(1,0,0,-1,0,273.5)" d="M111.519 39.467 111.224 36.551 107.739 36.442 107.847 35.219 110.662 35.255 110.496 32.879 108.142 32.699 108.495 28.999 105.81 28.783 106.004 39.279 111.519 39.467" fill="#ffffff"/>
<path transform="matrix(1,0,0,-1,0,273.5)" d="M117.444 40.971C117.444 40.621 117.329 40.335 117.098 40.114 116.896 39.918 116.666 39.819 116.407 39.819 116.152 39.819 115.925 39.918 115.723 40.114 115.493 40.335 115.377 40.621 115.377 40.971 115.377 41.321 115.493 41.607 115.723 41.828 115.925 42.024 116.152 42.123 116.407 42.123 116.666 42.123 116.896 42.024 117.098 41.828 117.329 41.607 117.444 41.321 117.444 40.971ZM115.168 40.971C115.168 40.621 115.054 40.335 114.823 40.114 114.622 39.918 114.394 39.819 114.139 39.819 113.885 39.819 113.654 39.918 113.448 40.114 113.222 40.335 113.11 40.621 113.11 40.971 113.11 41.321 113.222 41.607 113.448 41.828 113.654 42.024 113.885 42.123 114.139 42.123 114.394 42.123 114.622 42.024 114.823 41.828 115.054 41.607 115.168 41.321 115.168 40.971ZM118.516 33.397C118.516 31.852 118.243 30.645 117.696 29.776 117.12 28.864 116.292 28.408 115.212 28.408 113.129 28.408 112.087 30.002 112.087 33.188 112.087 34.293 112.181 36.071 112.368 38.523L114.564 38.408 114.348 30.914H116.097L116.04 39.186H118.235C118.423 36.243 118.516 34.314 118.516 33.397" fill="#ffffff"/>
<path transform="matrix(1,0,0,-1,0,273.5)" d="M124.42 35.68 124.391 37.933 121.929 37.861 121.972 35.709 124.42 35.68ZM126.767 36.933C126.767 36.174 126.62 35.517 126.328 34.96 126.011 34.355 125.596 34.036 125.082 34.002L124.096 33.923 126.558 30.561 124.701 28.56 122.253 33.318 122.167 29.574 119.949 29.193 119.258 39.395 124.11 39.971C124.192 39.98 124.29 39.985 124.405 39.985 125.092 39.985 125.651 39.724 126.083 39.2 126.539 38.648 126.767 37.893 126.767 36.933" fill="#ffffff"/>
<path transform="matrix(1,0,0,-1,0,273.5)" d="M138.148 31.245C138.148 30.318 137.772 29.597 137.019 29.078 136.418 28.66 135.758 28.451 135.039 28.451 134.491 28.451 133.875 28.642 133.188 29.021 132.564 29.356 132.005 29.776 131.511 30.28V33.427C132.812 32.011 133.726 31.303 134.254 31.303 134.619 31.303 134.88 31.343 135.039 31.425 135.312 31.564 135.449 31.843 135.449 32.26 135.449 32.668 135.077 33.17 134.333 33.765 133.042 34.802 132.349 35.367 132.252 35.464 131.504 36.208 131.129 36.964 131.129 37.731 131.129 38.691 131.741 39.401 132.965 39.862 133.786 40.17 134.659 40.323 135.586 40.323 136.272 40.323 137.047 40.254 137.911 40.114V37.313C137.177 37.415 136.577 37.465 136.111 37.465 134.667 37.465 133.944 37.208 133.944 36.694 133.944 36.383 134.309 35.978 135.039 35.479 136.051 34.782 136.726 34.254 137.062 33.895 137.786 33.117 138.148 32.233 138.148 31.245" fill="#ffffff"/>
<path transform="matrix(1,0,0,-1,0,273.5)" d="M145.564 32.742C145.42 31.552 145.053 30.59 144.463 29.855 143.867 29.106 143.15 28.732 142.311 28.732 141.182 28.732 140.251 29.251 139.517 30.287 138.782 31.324 138.416 32.644 138.416 34.247 138.416 35.605 138.752 36.771 139.427 37.742 140.102 38.714 140.908 39.2 141.85 39.2 142.737 39.2 143.512 38.864 144.175 38.192 144.871 37.486 145.319 36.531 145.521 35.327L143.174 35.09V36.442L140.863 36.256 140.791 31.583H143.174V32.742H145.564" fill="#ffffff"/>
<path transform="matrix(1,0,0,-1,0,273.5)" d="M152.569 29.057 150.193 29.07 150.093 33.175 148.084 33.188 148.293 29.208 146.479 29.057 146.197 40.165 148.574 40.15 148.674 36.047 150.684 36.018 150.475 40.014 152.289 40.165 152.569 29.057" fill="#ffffff"/>
<path transform="matrix(1,0,0,-1,0,273.5)" d="M157.904 34.29 157.652 36.774H155.902L155.96 34.232 157.904 34.29ZM160.704 30.417 158.026 29.956 157.702 32.217H156.594L156.551 28.884 153.375 28.941 154.354 39.128 159.365 39.87 160.704 30.417" fill="#ffffff"/>
<path transform="matrix(1,0,0,-1,0,273.5)" d="M165.542 31.756V37.256L163.627 37.033 163.584 31.756H165.542ZM168.098 34.326C168.098 32.853 167.798 31.657 167.197 30.741 166.598 29.824 165.787 29.318 164.765 29.222 164.035 29.184 162.953 29.128 161.518 29.057V39.279C162.593 39.553 163.521 39.689 164.304 39.689 165.417 39.689 166.328 39.193 167.035 38.199 167.744 37.206 168.098 35.915 168.098 34.326" fill="#ffffff"/>
<path transform="matrix(1,0,0,-1,0,273.5)" d="M174.318 37.242 171.251 37.142 171.236 35.823 173.598 35.795 173.612 33.333 170.617 33.175 170.646 31.813 174.131 31.95 174.022 28.747 169.012 28.603 168.717 40.086 174.318 40.071V37.242" fill="#ffffff"/>
<path transform="matrix(1,0,0,-1,0,273.5)" d="M181.359 29.617 179.394 29.07 176.945 34.585 177.154 29.884 175.34 29.74 175.06 40.165 177.098 40.15 179.545 34.621 179.336 40.007 181.15 39.92 181.359 29.617" fill="#ffffff"/>
<path transform="matrix(1,0,0,-1,0,273.5)" d="M189.185 28.703H187.666V29.488C187.118 28.965 186.525 28.703 185.887 28.703 184.76 28.703 183.828 29.222 183.094 30.257 182.359 31.292 181.992 32.609 181.992 34.211 181.992 35.562 182.331 36.722 183.008 37.69 183.684 38.658 184.49 39.143 185.426 39.143 186.314 39.143 187.09 38.809 187.752 38.142 188.447 37.441 188.896 36.488 189.098 35.284L186.751 35.046V36.399L184.44 36.213 184.368 31.533H186.751V32.526L185.383 32.584 185.47 33.837 189.185 33.895V28.703" fill="#ffffff"/>
<path transform="matrix(1,0,0,-1,0,273.5)" d="M196.24 33.397C196.24 31.852 195.967 30.645 195.42 29.776 194.844 28.864 194.016 28.408 192.936 28.408 190.853 28.408 189.811 30.002 189.811 33.188 189.811 34.293 189.904 36.071 190.092 38.523L192.287 38.408 192.072 30.914H193.82L193.764 39.186H195.959C196.146 36.243 196.24 34.314 196.24 33.397" fill="#ffffff"/>
<path transform="matrix(1,0,0,-1,0,273.5)" d="M202.791 36.832 200.805 36.651 201.006 28.084 198.4 28.222 198.811 36.817H196.823L196.91 39.467 202.734 39.322 202.791 36.832" fill="#ffffff"/>
<path transform="matrix(1,0,0,-1,0,273.5)" d="M207.232 34.29 206.98 36.774H205.231L205.289 34.232 207.232 34.29ZM210.033 30.417 207.355 29.956 207.031 32.217H205.923L205.879 28.884 202.705 28.941 203.684 39.128 208.694 39.87 210.033 30.417" fill="#ffffff"/>
<path transform="matrix(1,0,0,-1,0,273.5)" d="M217.6 32.742C217.456 31.552 217.089 30.59 216.498 29.855 215.903 29.106 215.186 28.732 214.346 28.732 213.218 28.732 212.287 29.251 211.553 30.287 210.818 31.324 210.451 32.644 210.451 34.247 210.451 35.605 210.788 36.771 211.463 37.742 212.137 38.714 212.944 39.2 213.885 39.2 214.773 39.2 215.548 38.864 216.211 38.192 216.906 37.486 217.355 36.531 217.557 35.327L215.209 35.09V36.442L212.898 36.256 212.826 31.583H215.209V32.742H217.6" fill="#ffffff"/>
<path transform="matrix(1,0,0,-1,0,273.5)" d="M224.605 29.057 222.229 29.07 222.129 33.175 220.119 33.188 220.328 29.208 218.514 29.057 218.233 40.165 220.609 40.15 220.71 36.047 222.719 36.018 222.51 40.014 224.324 40.165 224.605 29.057" fill="#ffffff"/>
<path transform="matrix(1,0,0,-1,0,273.5)" d="M231.005 36.832 229.018 36.651 229.22 28.084 226.613 28.222 227.023 36.817H225.037L225.123 39.467 230.947 39.322 231.005 36.832" fill="#ffffff"/>
<path transform="matrix(1,0,0,-1,0,273.5)" d="M237.326 37.242 234.26 37.142 234.244 35.823 236.605 35.795 236.621 33.333 233.625 33.175 233.654 31.813 237.139 31.95 237.031 28.747 232.02 28.603 231.725 40.086 237.326 40.071V37.242" fill="#ffffff"/>
<path transform="matrix(1,0,0,-1,0,273.5)" d="M244.367 29.617 242.402 29.07 239.954 34.585 240.163 29.884 238.349 29.74 238.068 40.165 240.105 40.15 242.553 34.621 242.344 40.007 244.158 39.92 244.367 29.617" fill="#ffffff"/>
<path transform="matrix(1,0,0,-1,0,273.5)" d="M80.195 196.435C85.043 201.193 86.648 201.536 102.518 203.495 109.759 204.388 116.944 205.732 124.72 206.961 126.076 218.87 127.423 230.693 128.713 242.022 132.592 244.214 134.32 241.926 136.102 240.069 142.45 233.452 148.752 226.791 155.062 220.138 156.859 218.244 158.625 216.322 160.675 214.124 171.76 218.855 182.538 223.458 193.319 228.054 195.002 228.772 196.649 229.79 198.405 230.058 199.966 230.296 201.656 229.683 204.14 229.323 200.342 217.097 196.81 205.729 193.149 193.946 191.182 194.355 189.763 194.65 187.732 195.072 188.879 203.926 193.07 211.646 194.721 220.814 192.865 220.501 191.411 220.518 190.177 220.006 182.207 216.697 174.296 213.246 166.339 209.905 164.204 209.008 161.977 208.33 159.311 207.38 150.266 214.881 143.681 224.819 133.739 232.681 132.58 221.912 131.53 212.16 130.407 201.722 119.134 199.919 108.241 198.178 97.348 196.436 97.278 196.026 97.208 195.616 97.138 195.206 107.878 190.222 118.618 185.239 129.781 180.06 128.793 178.095 128.129 176.774 127.101 174.729 111.537 181.769 96.225 188.671 80.195 196.435" fill="#e94c15"/>
<path transform="matrix(1,0,0,-1,0,273.5)" d="M164.812 151.071C174.262 177.189 191.881 186.219 219.671 186.295 227.486 186.317 235.301 186.326 243.116 186.428 243.869 186.437 244.614 187.061 245.53 187.476 245.415 189.199 245.307 190.814 245.17 192.874 233.953 192.874 223.261 193.414 212.648 192.728 201.294 191.993 190.679 188.476 181.016 181.987 163.913 170.503 162.008 165.42 158.916 153.054L164.812 151.071" fill="#6e6e6e"/>
<path transform="matrix(1,0,0,-1,0,273.5)" d="M196.354 152.725C199.104 152.725 201.854 152.712 204.605 152.698 207.359 152.685 210.117 152.672 212.881 152.672 212.882 152.672 212.882 152.672 212.883 152.672 218.744 152.672 223.338 152.733 227.667 152.872V168.518C225.809 168.526 223.967 168.573 222.179 168.618 220.182 168.668 218.294 168.716 216.386 168.716 213.621 168.716 211.357 168.612 209.262 168.388 201.796 167.592 196.892 161.614 196.349 152.725H196.354ZM210.849 145.26C202.899 145.26 192.997 145.588 189.045 146.511 188.799 146.568 188.611 146.766 188.566 147.014 187.134 154.948 188.83 162.392 193.344 167.977 197.679 173.341 204.216 176.431 211.751 176.678 214.269 176.76 216.974 176.798 220.263 176.798 222.566 176.798 224.915 176.78 227.343 176.761 229.935 176.741 232.617 176.72 235.432 176.72 235.78 176.72 236.063 176.437 236.063 176.088L236.067 169.082C236.073 163.09 236.077 157.646 236.042 152.203 236.034 151.003 235.895 149.835 235.761 148.706 235.703 148.227 235.648 147.76 235.605 147.312 235.581 147.047 235.394 146.827 235.137 146.76 230.906 145.652 219.409 145.26 210.849 145.26" fill="#6e6e6e"/>
<path transform="matrix(1,0,0,-1,0,273.5)" d="M197.03 153.357C197.753 161.546 202.382 167.019 209.329 167.76 211.402 167.981 213.645 168.084 216.388 168.084 218.287 168.084 220.17 168.036 222.164 167.986 223.753 167.946 225.385 167.905 227.035 167.89V153.484C222.888 153.36 218.456 153.304 212.872 153.304 210.111 153.304 207.358 153.317 204.607 153.33 202.08 153.342 199.556 153.355 197.03 153.357ZM220.265 177.43C216.968 177.43 214.256 177.392 211.73 177.309 204.009 177.056 197.304 173.883 192.852 168.374 188.222 162.644 186.479 155.019 187.945 146.902 188.035 146.406 188.41 146.01 188.901 145.896 192.906 144.961 202.865 144.628 210.85 144.628 219.447 144.628 231.009 145.026 235.297 146.148 235.811 146.283 236.186 146.724 236.235 147.253 236.277 147.697 236.332 148.16 236.389 148.634 236.525 149.78 236.666 150.965 236.674 152.199 236.71 157.636 236.705 163.181 236.699 169.052 236.697 171.309 236.695 173.645 236.695 176.088 236.695 176.786 236.129 177.352 235.431 177.352 232.619 177.352 229.939 177.373 227.349 177.393 224.92 177.412 222.571 177.43 220.265 177.43ZM195.685 152.093C195.911 152.093 196.137 152.093 196.362 152.093 201.86 152.093 207.352 152.04 212.872 152.04 217.98 152.04 223.111 152.085 228.299 152.26 228.299 158.236 228.299 163.311 228.299 169.148 224.223 169.148 220.267 169.348 216.388 169.348 213.964 169.348 211.57 169.27 209.195 169.016 201.207 168.165 196.029 161.494 195.685 152.093M220.265 176.166C225.029 176.166 229.983 176.088 235.431 176.088 235.431 167.177 235.459 159.692 235.41 152.207 235.399 150.529 235.116 148.853 234.977 147.371 231.208 146.385 220.893 145.892 210.85 145.892 201.669 145.892 192.715 146.303 189.189 147.127 186.36 162.788 196.222 175.536 211.771 176.046 214.578 176.138 217.387 176.166 220.265 176.166" fill="#ffffff"/>
<path transform="matrix(1,0,0,-1,0,273.5)" d="M222.193 109.668C222.021 109.668 221.855 109.738 221.736 109.863 221.617 109.988 221.554 110.156 221.562 110.329L221.825 116.059C221.84 116.396 222.118 116.661 222.456 116.661H244.234C244.396 116.661 244.552 116.6 244.669 116.488 244.726 116.435 244.811 116.377 244.903 116.312 245.286 116.038 245.811 115.664 245.872 115.08 245.981 114.076 245.966 113.062 245.947 111.886 245.939 111.396 245.932 110.872 245.932 110.3 245.932 109.951 245.648 109.668 245.3 109.668H222.193" fill="#6e6e6e"/>
<path transform="matrix(1,0,0,-1,0,273.5)" d="M244.234 117.294H222.456C221.781 117.294 221.225 116.763 221.194 116.088L221.051 112.978 220.931 110.358C220.915 110.013 221.041 109.677 221.279 109.427 221.518 109.177 221.848 109.036 222.193 109.036H245.3C245.998 109.036 246.564 109.602 246.564 110.3 246.564 110.869 246.572 111.39 246.58 111.877 246.598 113.073 246.614 114.106 246.501 115.148 246.407 116.014 245.696 116.521 245.272 116.825 245.205 116.872 245.142 116.915 245.096 116.955 244.861 117.178 244.558 117.294 244.234 117.294ZM244.234 116.03C244.493 115.784 245.199 115.434 245.244 115.012 245.393 113.641 245.3 112.244 245.3 110.3 237.799 110.3 230.464 110.3 222.193 110.3 222.285 112.293 222.361 113.948 222.456 116.03 229.936 116.03 237.031 116.03 244.234 116.03" fill="#ffffff"/>
<path transform="matrix(1,0,0,-1,0,273.5)" d="M104.988 251.132C106.308 252.147 106.923 252.774 107.666 253.147 108.402 253.517 109.266 253.63 110.889 254.083 114.013 248.473 117.166 242.811 120.546 236.739 118.436 235.698 116.728 234.856 114.523 233.768 111.295 239.647 108.265 245.165 104.988 251.132" fill="#e94c15"/>
<path transform="matrix(1,0,0,-1,0,273.5)" d="M152.122 259.933C150.794 253.167 149.639 247.285 148.415 241.051 146.423 241.159 144.817 241.246 142.503 241.371 142.34 248.386 144.413 254.556 145.699 261.532 147.928 260.977 149.741 260.526 152.122 259.933" fill="#e94c15"/>
<path transform="matrix(1,0,0,-1,0,273.5)" d="M84.064 222.64C85.134 223.307 86.596 224.219 88.629 225.486 90.461 223.752 92.595 221.529 94.945 219.566 97.377 217.535 100.019 215.757 102.908 213.616 100.269 210.836 98.985 209.483 97.748 208.18 93.263 212.919 89.142 217.274 84.064 222.64" fill="#e94c15"/>
<path transform="matrix(1,0,0,-1,0,273.5)" d="M173.614 240.663C175.973 239.765 177.776 239.078 180.014 238.225 178.125 233.338 176.392 228.856 174.546 224.085 172.49 224.799 170.932 225.339 168.589 226.152 170.268 231 171.899 235.711 173.614 240.663" fill="#e94c15"/>
<path transform="matrix(1,0,0,-1,0,273.5)" d="M202.134 128.251C199.037 128.251 195.563 126.607 192.842 123.854 190.071 121.051 188.483 117.604 188.485 114.397 188.489 107.273 195.097 100.384 202.082 100.221 202.082 100.221 202.367 100.218 202.368 100.218 205.9 100.217 209.49 101.79 212.218 104.532 214.948 107.277 216.503 110.884 216.483 114.428 216.446 121.422 209.746 128.008 202.427 128.246L202.134 128.251ZM202.636 92.191C202.356 92.191 202.078 92.197 201.798 92.209 196.189 92.445 190.667 94.979 186.646 99.158 182.527 103.442 180.39 108.877 180.628 114.462 181.179 127.333 190.236 135.981 203.166 135.981 208.69 135.975 213.983 133.65 218.104 129.436 222.298 125.146 224.635 119.473 224.516 113.869 224.266 102.119 214.245 92.191 202.636 92.191" fill="#6e6e6e"/>
<path transform="matrix(1,0,0,-1,0,273.5)" d="M202.365 100.849C202.276 100.849 202.187 100.85 202.097 100.852 195.429 101.008 189.121 107.591 189.117 114.398 189.116 117.394 190.676 120.763 193.291 123.409 195.897 126.045 199.203 127.619 202.134 127.619 202.225 127.619 202.316 127.617 202.407 127.614 209.408 127.387 215.816 121.1 215.852 114.425 215.87 111.048 214.382 107.605 211.77 104.979 209.159 102.354 205.731 100.849 202.365 100.849ZM203.166 136.613C189.874 136.612 180.563 127.721 179.997 114.488 179.751 108.73 181.951 103.13 186.192 98.72 190.324 94.424 196.002 91.82 201.771 91.578 202.06 91.566 202.348 91.56 202.636 91.56 214.581 91.56 224.89 101.77 225.148 113.856 225.271 119.628 222.868 125.467 218.556 129.877 214.316 134.214 208.863 136.606 203.202 136.613 203.201 136.613 203.167 136.613 203.166 136.613ZM202.365 99.585C210.114 99.585 217.157 106.632 217.115 114.432 217.076 121.745 210.087 128.629 202.448 128.878 202.344 128.881 202.238 128.883 202.134 128.883 195.201 128.883 187.849 121.483 187.853 114.397 187.858 106.921 194.732 99.76 202.068 99.589 202.167 99.586 202.266 99.585 202.365 99.585M203.166 135.349C203.178 135.349 203.188 135.349 203.2 135.349 214.544 135.336 224.119 124.928 223.884 113.883 223.641 102.476 213.798 92.824 202.636 92.824 202.366 92.824 202.096 92.83 201.824 92.841 190.467 93.318 180.779 103.18 181.26 114.434 181.822 127.566 191.089 135.349 203.166 135.349" fill="#ffffff"/>
<path transform="matrix(1,0,0,-1,0,273.5)" d="M76.27 153.141C72.999 163.028 64.138 168.458 51.216 168.458 49.156 168.458 46.996 168.319 44.79 168.043 43.815 162.626 43.888 157.865 45.018 153.141H76.27ZM38.085 145.535C37.766 145.535 37.497 145.772 37.457 146.089 36.65 152.591 36.734 158.791 36.824 165.354 36.869 168.706 36.916 172.172 36.836 175.713 36.828 176.058 37.099 176.346 37.444 176.358 38.584 176.401 39.811 176.458 41.101 176.519 44.268 176.668 47.856 176.837 51.485 176.837 60.866 176.837 67.206 175.681 71.436 173.2 81.285 167.423 85.946 157.275 83.904 146.054 83.85 145.753 83.588 145.535 83.283 145.535H38.085" fill="#6e6e6e"/>
<path transform="matrix(1,0,0,-1,0,273.5)" d="M45.331 167.472C47.351 167.707 49.327 167.826 51.216 167.826 59.993 167.826 71.112 165.336 75.382 153.773H45.52C44.55 158.118 44.489 162.518 45.331 167.472ZM51.487 177.469H51.486C47.843 177.469 44.246 177.3 41.073 177.15 39.784 177.09 38.559 177.032 37.421 176.99 36.731 176.965 36.189 176.389 36.204 175.699 36.284 172.169 36.237 168.71 36.191 165.364 36.102 158.778 36.018 152.557 36.83 146.012 36.908 145.379 37.446 144.903 38.084 144.903H83.283C83.894 144.903 84.417 145.34 84.526 145.941 86.618 157.434 81.843 167.828 71.756 173.745 67.424 176.286 60.984 177.469 51.487 177.469ZM44.522 152.509C53.022 152.509 68.155 152.509 77.129 152.509 73.654 164.364 63.358 169.09 51.216 169.09 48.948 169.09 46.616 168.925 44.252 168.611 43.264 163.39 43.091 158.138 44.522 152.509M51.486 176.205C58.755 176.205 66.22 175.526 71.116 172.655 80.465 167.171 85.315 157.335 83.283 146.167 70.525 146.167 51.252 146.167 38.084 146.167 36.863 156.014 37.701 165.402 37.468 175.727 41.412 175.873 46.401 176.205 51.486 176.205" fill="#ffffff"/>
<path transform="matrix(1,0,0,-1,0,273.5)" d="M62.945 108.878C46.865 108.878 33.721 109.261 28.64 109.878 28.333 109.915 28.098 110.168 28.084 110.477L27.874 115.227C27.861 115.528 28.063 115.798 28.356 115.869 31.996 116.752 52.586 117.214 71.045 117.214 87.434 117.214 99.897 116.884 104.382 116.332 104.688 116.295 104.922 116.043 104.937 115.735L105.149 111.264C105.158 111.088 105.092 110.916 104.969 110.79 103.181 108.97 69.648 108.878 62.945 108.878" fill="#6e6e6e"/>
<path transform="matrix(1,0,0,-1,0,273.5)" d="M71.054 117.846V116.582L71.053 117.846H71.052C53.122 117.846 32.066 117.419 28.207 116.483 27.62 116.34 27.216 115.802 27.243 115.199L27.356 112.632 27.453 110.449C27.48 109.831 27.95 109.324 28.564 109.25 34.664 108.51 50.321 108.246 62.939 108.246 73.136 108.246 83.287 108.406 90.79 108.686 104.281 109.189 104.939 109.859 105.42 110.348 105.666 110.599 105.797 110.942 105.781 111.293L105.568 115.766C105.539 116.38 105.071 116.885 104.46 116.96 99.951 117.515 87.462 117.846 71.054 117.846ZM71.052 116.582C85.63 116.582 99.456 116.302 104.305 115.706 104.377 114.19 104.454 112.576 104.518 111.233 103.411 110.106 82.751 109.51 62.939 109.51 48.366 109.51 34.254 109.832 28.716 110.505 28.648 112.038 28.576 113.67 28.506 115.255 32.042 116.113 52.177 116.582 71.052 116.582" fill="#ffffff"/>
<path transform="matrix(1,0,0,-1,0,273.5)" d="M158.77 133.202C157.71 137.579 165.125 141.94 163.756 146.946 161.59 154.872 163.541 156.269 155.592 158.375 149.173 160.076 142.814 162.122 136.301 163.325 123.506 165.689 111.983 170.509 102.145 179.142 100.847 180.281 99.262 181.091 97.944 182.211 84.987 193.223 44.89 193.966 28.732 192.583 28.732 190.499 28.732 188.884 28.732 186.298 32.499 186.298 42.349 186.147 45.22 186.324 56.991 187.054 85.015 183.573 94.554 176.416 114.272 161.623 114.487 161.908 137.777 155.778 140.29 155.117 142.794 154.388 145.341 153.893 164.144 150.232 162.974 146.763 166.798 132.298L158.77 133.202" fill="#6e6e6e"/>
<path transform="matrix(1,0,0,-1,0,273.5)" d="M122.59 128.251C119.494 128.251 116.02 126.607 113.298 123.854 110.527 121.05 108.939 117.604 108.941 114.397 108.945 107.273 115.553 100.384 122.538 100.221L122.824 100.218C126.356 100.217 129.945 101.79 132.673 104.532 135.403 107.276 136.958 110.884 136.939 114.429 136.902 121.422 130.202 128.008 122.883 128.246L122.59 128.251ZM123.092 92.191C122.813 92.191 122.534 92.197 122.254 92.209 116.646 92.445 111.124 94.979 107.103 99.158 102.983 103.442 100.846 108.877 101.084 114.462 101.635 127.333 110.692 135.981 123.622 135.981 129.146 135.975 134.439 133.65 138.561 129.436 142.754 125.146 145.091 119.473 144.972 113.869 144.722 102.119 134.701 92.191 123.092 92.191" fill="#6e6e6e"/>
<path transform="matrix(1,0,0,-1,0,273.5)" d="M122.821 100.849C122.732 100.849 122.643 100.85 122.553 100.852 115.885 101.008 109.577 107.591 109.573 114.398 109.572 117.394 111.132 120.763 113.747 123.409 116.353 126.045 119.659 127.619 122.59 127.619 122.681 127.619 122.772 127.617 122.863 127.614 129.863 127.387 136.272 121.1 136.307 114.425 136.326 111.048 134.838 107.605 132.226 104.979 129.615 102.354 126.187 100.849 122.821 100.849ZM123.622 136.613C110.33 136.612 101.019 127.721 100.453 114.488 100.207 108.73 102.407 103.13 106.647 98.72 110.78 94.424 116.458 91.82 122.227 91.578 122.516 91.566 122.804 91.56 123.092 91.56 135.037 91.56 145.346 101.77 145.604 113.856 145.726 119.628 143.324 125.467 139.012 129.877 134.772 134.214 129.318 136.606 123.658 136.613 123.657 136.613 123.623 136.613 123.622 136.613ZM122.821 99.585C130.57 99.585 137.613 106.632 137.571 114.432 137.532 121.745 130.543 128.629 122.904 128.878 122.8 128.881 122.694 128.883 122.59 128.883 115.657 128.883 108.305 121.483 108.309 114.397 108.314 106.921 115.188 99.76 122.523 99.589 122.623 99.586 122.722 99.585 122.821 99.585M123.622 135.349C123.634 135.349 123.644 135.349 123.656 135.349 135 135.336 144.575 124.928 144.34 113.883 144.097 102.476 134.254 92.824 123.092 92.824 122.822 92.824 122.552 92.83 122.28 92.841 110.923 93.318 101.235 103.18 101.716 114.434 102.278 127.566 111.545 135.349 123.622 135.349" fill="#ffffff"/>
<path transform="matrix(1,0,0,-1,0,273.5)" d="M153.906 107.739C152.748 107.739 151.633 108.423 151.074 109.608 150.282 111.287 150.907 113.337 152.47 114.189L161.57 119.143 161.202 121.439C161.047 122.406 161.288 123.4 161.864 124.163L164.38 127.497 161.056 130.151C159.85 131.115 159.438 132.854 160.07 134.319L161.964 138.708 157.075 143.124C156.007 144.089 155.651 145.689 156.197 147.067L158.066 151.783 153.323 154.174C151.738 154.973 151.966 156.627 152.71 158.331 153.455 160.034 154.432 161.145 156.018 160.344L163.53 156.557C165.075 155.778 165.77 153.825 165.101 152.137L162.954 146.717 167.903 142.247C168.999 141.256 169.341 139.601 168.74 138.205L166.911 133.967 170.819 130.847C171.512 130.293 171.966 129.458 172.074 128.537 172.182 127.616 171.935 126.687 171.391 125.966L167.698 121.073 168.221 117.819C168.457 116.347 169.134 115.982 168.927 114.329L155.337 108.108C154.878 107.859 154.389 107.739 153.906 107.739" fill="#ffffff"/>
<path transform="matrix(1,0,0,-1,0,273.5)" d="M150.426 110.426C149.269 110.426 148.153 111.06 147.595 112.161 146.802 113.718 147.427 115.62 148.99 116.411L158.091 121.008 157.722 123.139C157.567 124.037 157.809 124.959 158.384 125.667L160.9 128.76 157.576 131.224C156.371 132.118 155.959 133.732 156.59 135.092L158.484 139.164 153.595 143.262C152.527 144.158 152.171 145.643 152.717 146.921L154.586 151.297 149.843 153.517C148.258 154.258 147.575 156.142 148.319 157.723 149.063 159.303 150.953 159.985 152.538 159.242L160.05 155.728C161.595 155.005 162.29 153.193 161.621 151.626L159.474 146.597 164.423 142.448C165.519 141.529 165.861 139.993 165.26 138.698L163.431 134.765 167.34 131.87C168.032 131.355 168.486 130.581 168.594 129.726 168.702 128.872 168.455 128.009 167.911 127.34L164.219 122.799 164.741 119.78C164.977 118.414 164.291 117.05 163.048 116.422L151.857 110.768C151.398 110.537 150.909 110.426 150.426 110.426" fill="#6e6e6e"/>
</g>
</svg>
