<svg xmlns="http://www.w3.org/2000/svg" viewBox="0 0 395.39 50.63"><defs><style>.cls-1{fill:#363630;}.cls-1,.cls-2{fill-rule:evenodd;}.cls-2{fill:#00a3e0;}.cls-3{fill:#605d5c;}</style></defs><g id="Ebene_2" data-name="Ebene 2"><g id="Ebene_1-2" data-name="Ebene 1"><g id="Logo"><path class="cls-1" d="M388.49,2.62A5.21,5.21,0,0,1,393.67,8a5.13,5.13,0,0,1-5.1,5.31A5.22,5.22,0,0,1,383.34,8a5.23,5.23,0,0,1,5.15-5.35m.08-1.35A6.76,6.76,0,0,0,381.63,8a6.88,6.88,0,0,0,13.76,0,6.7,6.7,0,0,0-6.82-6.7m-1.06,4.49a3.75,3.75,0,0,1,.85-.08c1,0,1.43.41,1.43,1s-.69,1-1.55,1h-.73Zm0,3h.73c.86,0,1.27.32,1.39,1a5.38,5.38,0,0,0,.53,1.63h1.63a6.35,6.35,0,0,1-.49-1.63c-.2-.9-.53-1.43-1.18-1.64V8.09a1.72,1.72,0,0,0,1.39-1.59,1.67,1.67,0,0,0-.7-1.43,3.53,3.53,0,0,0-2.28-.53,18.63,18.63,0,0,0-2.58.2v6.7h1.56Z"/><path class="cls-2" d="M63.49,0A25.31,25.31,0,1,1,51.65,47.69a3.13,3.13,0,0,1-2.07-4s3.85-19.39,20.27-26.35c-11.16,7.32-14.54,16.45-17,22a4,4,0,0,1,2.52-.73C75.49,39.4,82,28,77,7.05,66.8,18.9,49.16,12.62,46.57,27.43,45.63,32.84,50,33.74,50,37.76c-.7,1.61-1.61,5.55-2.13,7.47A25.31,25.31,0,0,1,63.49,0"/><path class="cls-3" d="M182.54,44.17h-20.3V26.23h18.07V22H162.24V6.33h19.22V2.08H157V48.43h25.59ZM224.31,2.08h-5V22.27c0,7.3.12,12.84.63,19.28l-.12.07a142.22,142.22,0,0,0-8.47-15.15L195.68,2.08h-5.54V48.43h5V28c0-8-.06-13.44-.51-19.34l.26-.06A139.17,139.17,0,0,0,203.57,24L219,48.43h5.28Zm35.81,42.09h-20.3V26.23h18.07V22H239.82V6.33H259V2.08h-24.5V48.43h25.58ZM287.42,26c5.15-1.76,9-5.71,9-11.86a11.43,11.43,0,0,0-3.63-8.64c-2.87-2.55-7-3.77-13.3-3.77a59.75,59.75,0,0,0-11,1V48.43h5.28V27.93h5.92c5.73,0,8.4,2.86,9.8,9.31,1.27,5.77,2.35,9.85,3.12,11.19h5.47c-.95-1.77-2-5.84-3.56-12.53-1.15-5-3.38-8.52-7.13-9.67ZM273.8,24V6.27a30,30,0,0,1,6-.48c5.92,0,11.33,2.13,11.33,9,0,5.6-4.33,9.25-11.07,9.25Zm64.93.48h-15V28.6h9.8V43.44c-1.4.73-4.13,1.34-8.21,1.34-11.07,0-18.39-7-18.39-19.53,0-12.28,7.7-19.34,19.16-19.34A23.86,23.86,0,0,1,336,7.79l1.4-4.19a29.21,29.21,0,0,0-11.21-1.95c-15.21,0-24.82,9.79-24.82,23.91,0,9.79,4.52,23.36,23.55,23.36a41,41,0,0,0,13.81-2.38ZM372.42,2.08l-7,12.89c-1.91,3.59-3.57,6.75-4.9,9.86h-.2c-1.46-3.35-3-6.33-4.83-9.8L348.74,2.08h-6l14.76,26.58V48.43h5.28V28.54l15.6-26.46Z"/><path class="cls-1" d="M25.46,30c.74-2.94,1.56-5.85,2.42-8.75L33.47,2.08h13.2a28.68,28.68,0,0,0-9.16,35.41l-4,10.95H16.62L0,2.08H17.44L23,21.23c.86,2.91,1.69,5.84,2.43,8.78"/><path class="cls-1" d="M139.55,19.88c6.27,2.62,11.31,6.81,11.31,14.05a14,14,0,0,1-1.61,6.64c-3.37,6.29-10.79,8.33-17.45,8.33A25.33,25.33,0,0,1,117.39,45a18.88,18.88,0,0,0,3.71-10.4l1.81.87a23.12,23.12,0,0,0,9.3,2.06c1.79,0,5-.33,5-2.74a2.19,2.19,0,0,0-.15-.84c-.62-1.66-4.24-3.11-5.72-3.74h0c-5.88-2.52-12-6.82-12-13.88a13.65,13.65,0,0,1,1.22-5.7c3-6.54,10.25-8.87,17-8.87a26.43,26.43,0,0,1,10.65,2l1.19.54-2.73,11.2-1.75-.82a17.44,17.44,0,0,0-7.42-1.62c-1.41,0-4.41.38-4.41,2.35a1.86,1.86,0,0,0,.09.62,3.6,3.6,0,0,0,1.5,1.47,36.69,36.69,0,0,0,4.93,2.38"/><path class="cls-1" d="M106.56,19.88c6.28,2.62,11.31,6.81,11.31,14.05a13.84,13.84,0,0,1-1.61,6.64c-3.37,6.29-10.79,8.33-17.45,8.33-3.94,0-10.24-1-14.76-3.59a28.67,28.67,0,0,0,6.23-9.71,23.29,23.29,0,0,0,9,1.9c1.78,0,5-.33,5-2.74a2.39,2.39,0,0,0-.14-.84c-.63-1.66-4.24-3.11-5.72-3.74h0a30.05,30.05,0,0,1-6.16-3.48c0-.46,0-.92,0-1.39a28.52,28.52,0,0,0-4.37-15.22C90.94,3.94,98,1.73,104.52,1.73a26.42,26.42,0,0,1,10.64,2l1.2.54-2.74,11.2-1.75-.82a17.39,17.39,0,0,0-7.41-1.62c-1.41,0-4.42.38-4.42,2.35a1.65,1.65,0,0,0,.1.62,3.58,3.58,0,0,0,1.49,1.47,36.69,36.69,0,0,0,4.93,2.38"/></g></g></g></svg>